<?xml version="1.0" encoding="UTF-8" standalone="no"?>
<svg
   xmlns:dc="http://purl.org/dc/elements/1.1/"
   xmlns:cc="http://creativecommons.org/ns#"
   xmlns:rdf="http://www.w3.org/1999/02/22-rdf-syntax-ns#"
   xmlns:svg="http://www.w3.org/2000/svg"
   xmlns="http://www.w3.org/2000/svg"
   xmlns:sodipodi="http://sodipodi.sourceforge.net/DTD/sodipodi-0.dtd"
   xmlns:inkscape="http://www.inkscape.org/namespaces/inkscape"
   width="94.488"
   height="94.488"
   version="1.1"
   viewBox="0 0 25 25"
   id="svg888"
   sodipodi:docname="addCaptionImage.svg"
   inkscape:version="1.0.1 (c497b03c, 2020-09-10)">
  <sodipodi:namedview
     pagecolor="#ffffff"
     bordercolor="#666666"
     borderopacity="1"
     objecttolerance="10"
     gridtolerance="10"
     guidetolerance="10"
     inkscape:pageopacity="0"
     inkscape:pageshadow="2"
     inkscape:window-width="1680"
     inkscape:window-height="924"
     id="namedview890"
     showgrid="false"
     inkscape:zoom="7.7258489"
     inkscape:cx="47.243999"
     inkscape:cy="47.243999"
     inkscape:window-x="0"
     inkscape:window-y="23"
     inkscape:window-maximized="1"
     inkscape:current-layer="g854" />
  <defs
     id="defs838">
    <linearGradient
       id="linearGradient843"
       x1="13.229"
       x2="25.424"
       y1="10.583"
       y2="25.417"
       gradientTransform="matrix(.95745 0 0 .96809 .52917 -24.606)"
       gradientUnits="userSpaceOnUse">
      <stop
         stop-color="#00000f"
         offset="0"
         id="stop833" />
      <stop
         stop-color="#00000f"
         stop-opacity="0"
         offset="1"
         id="stop835" />
    </linearGradient>
  </defs>
  <metadata
     id="metadata840">
    <rdf:RDF>
      <cc:Work
         rdf:about="">
        <dc:format>image/svg+xml</dc:format>
        <dc:type
           rdf:resource="http://purl.org/dc/dcmitype/StillImage" />
        <dc:title></dc:title>
      </cc:Work>
    </rdf:RDF>
  </metadata>
  <rect
     transform="scale(1,-1)"
     x=".52917"
     y="-24.606"
     width="23.812"
     height="24.077"
     fill="none"
     stroke="url(#linearGradient843)"
     stroke-width=".96275"
     id="rect842" />
  <circle
     transform="scale(1,-1)"
     cx="20.38"
     cy="-4.6757"
     r="4.2529"
     fill="none"
     stroke="#00000f"
     stroke-width=".75"
     id="circle844" />
  <g
     id="g854"
     transform="matrix(0.91212904,0,0,0.89383973,1.7543306,0.48891235)">
    <rect
       transform="scale(1,-1)"
       x="19.540001"
       y="-8.6611996"
       width="1.9269"
       height="7.9268999"
       stroke="#00000f"
       stroke-width="0.073097"
       id="rect846" />
    <rect
       transform="scale(1,-1)"
       x="16.341999"
       y="-5.7502999"
       width="8"
       height="2"
       stroke-width="0"
       id="rect848" />
    <text
       transform="scale(0.91695352,1.0905678)"
       x="-0.65474421"
       y="22.901566"
       fill="#000000"
       font-family="sans-serif"
       font-size="14.7544px"
       stroke-width="0.368869"
       style="line-height:3.35"
       xml:space="preserve"
       id="text852"><tspan
         x="-0.65474421"
         y="22.901566"
         font-family="NSimSun"
         font-size="14.7544px"
         stroke-width="0.368869"
         id="tspan850">TXT</tspan></text>
  </g>
  <path
     d="m4.914 11.766 10.171-6.5482-1.3267-2.572-10.171 6.5482c0.44222 0.85733 0.88445 1.7147 1.3267 2.572z"
     fill="none"
     stroke="#000"
     stroke-width=".12882px"
     id="path856" />
  <path
     d="m12.305 3.5813 1.3267 2.572 0.48434-0.31182-1.3267-2.572z"
     fill="none"
     stroke="#000"
     stroke-width=".12882px"
     id="path858" />
  <g
     stroke="#00000f"
     stroke-width=".046107"
     id="g868">
    <path
       d="m12.586 3.5041 0.18959-0.12206 0.624 1.2097 0.624 1.2097-0.37917 0.24411-1.248-2.4195z"
       fill="#c8b7b7"
       id="path860" />
    <path
       d="m13.314 3.0356 0.4281-0.27561 1.248 2.4195-0.85619 0.55123-1.248-2.4195z"
       fill="#faa"
       id="path862" />
    <path
       d="m3.919 9.8371-0.33167-0.643 8.718-5.6128 0.33167 0.643c-2.906 1.8709-5.8289 3.7142-8.718 5.6128z"
       fill="#dbb751"
       id="path864" />
    <path
       d="m8.5752 8.6399 4.6994-3.0267 0.12983 0.25169 0.12982 0.25169-8.6546 5.5696c-0.099134-0.1877-0.19827-0.37539-0.29749-0.56303z"
       fill="#dbb751"
       id="path866" />
  </g>
  <path
     d="m3.5873 9.1941c-0.29105 1.0439-0.29105 1.0439 0.66334 1.286-0.29105 1.0439-0.29105 1.0439 0.66334 1.286 0 0-1.3606 0.13702-2.0409 0.20553-0.37112 0.03738-1.1134 0.11213-1.1134 0.11213s0.43454-0.68708 0.65181-1.0306c0.39191-0.61968 1.1757-1.859 1.1757-1.859z"
     fill="none"
     stroke="#000"
     stroke-width=".14606px"
     id="path870" />
  <path
     d="m2.4282 11.082 0.44222 0.85732-1.1107 0.14407z"
     stroke="#000"
     stroke-width=".045077px"
     id="path872" />
  <path
     d="m2.9165 10.406c0.2462-0.38926 0.45074-0.71238 0.45454-0.71806 0.00379-0.00566-3.998e-4 0.041107-0.00933 0.10397-0.027497 0.19364-0.013933 0.30917 0.047883 0.40787 0.088819 0.1418 0.24269 0.21255 0.74166 0.34095 0.00145 3.48e-4 -0.018076 0.07983-0.043328 0.1766-0.088925 0.34078-0.10763 0.46103-0.09238 0.59386 0.020485 0.17847 0.11371 0.2863 0.32138 0.37178 0.055419 0.0228 0.099991 0.04195 0.099035 0.04259-9.569e-4 6.17e-4 -0.35358 0.03653-0.78361 0.07982l-0.78188 0.07871-0.40155-0.77038z"
     fill="#f95"
     stroke="#00000f"
     stroke-width=".023054"
     id="path874" />
  <path
     d="m12.969 4.8673-8.718 5.6128-0.33167-0.643 8.718-5.6128 0.72967 1.4146-8.7844 5.4842-0.33167-0.643z"
     fill="none"
     stroke="#000"
     stroke-width=".12882px"
     id="path876" />
  <g
     stroke="#00000f"
     id="g886">
    <path
       d="m8.6455 7.7372 4.3071-2.773 0.31325 0.60729-0.61871 0.40309c-0.45464 0.2962-8.0198 5.0355-8.0456 5.0403-0.00147 2.82e-4 -0.061276-0.11318-0.13294-0.25211l-0.1303-0.2526z"
       fill="#f95"
       stroke-width=".032603"
       id="path878" />
    <path
       d="m8.3138 7.0942 4.3071-2.773 0.1303 0.25261 0.1303 0.25261-8.6143 5.5459-0.1303-0.2526-0.1303-0.25261z"
       fill="#f95"
       stroke-width=".032603"
       id="path880" />
    <path
       d="m3.4953 9.9918c-0.00318-0.072997 0.052952-0.37151 0.094285-0.50142l0.027875-0.087612 0.24445 0.4739c0.23148 0.44877 0.24272 0.47348 0.21186 0.46601-0.10685-0.025897-0.25593-0.071396-0.34951-0.10657-0.16927-0.063721-0.22362-0.12172-0.22897-0.24431z"
       fill="#dbb751"
       stroke-width=".046107"
       id="path882" />
    <path
       d="m4.1599 11.25c0.00208-0.09503 0.035538-0.26857 0.086076-0.44669l0.033244-0.11717 0.48782 0.94573-0.085113-0.01684c-0.046814-0.0093-0.17051-0.05005-0.27489-0.09066-0.16888-0.0657-0.19303-0.08016-0.21941-0.13128-0.019228-0.03728-0.028969-0.08751-0.027744-0.14304z"
       fill="#dbb751"
       stroke-width=".046107"
       id="path884" />
  </g>
</svg>
