<?xml version="1.0" encoding="UTF-8" standalone="no"?>
<svg
   xmlns:dc="http://purl.org/dc/elements/1.1/"
   xmlns:cc="http://creativecommons.org/ns#"
   xmlns:rdf="http://www.w3.org/1999/02/22-rdf-syntax-ns#"
   xmlns:svg="http://www.w3.org/2000/svg"
   xmlns="http://www.w3.org/2000/svg"
   xmlns:sodipodi="http://sodipodi.sourceforge.net/DTD/sodipodi-0.dtd"
   xmlns:inkscape="http://www.inkscape.org/namespaces/inkscape"
   width="94.488"
   height="94.488"
   version="1.1"
   viewBox="0 0 25 25"
   id="svg911"
   sodipodi:docname="addKey.svg"
   inkscape:version="1.0.1 (c497b03c, 2020-09-10)">
  <defs
     id="defs915" />
  <sodipodi:namedview
     pagecolor="#ffffff"
     bordercolor="#666666"
     borderopacity="1"
     objecttolerance="10"
     gridtolerance="10"
     guidetolerance="10"
     inkscape:pageopacity="0"
     inkscape:pageshadow="2"
     inkscape:window-width="3840"
     inkscape:window-height="2115"
     id="namedview913"
     showgrid="false"
     inkscape:zoom="7.7258489"
     inkscape:cx="47.243999"
     inkscape:cy="47.243999"
     inkscape:window-x="0"
     inkscape:window-y="23"
     inkscape:window-maximized="1"
     inkscape:current-layer="svg911" />
  <metadata
     id="metadata899">
    <rdf:RDF>
      <cc:Work
         rdf:about="">
        <dc:format>image/svg+xml</dc:format>
        <dc:type
           rdf:resource="http://purl.org/dc/dcmitype/StillImage" />
        <dc:title></dc:title>
      </cc:Work>
    </rdf:RDF>
  </metadata>
  <path
     d="m24.409 16.105c-0.09647 7.7306-1.2803 8.7828-9.0568 8.1467-2.4543-0.20076-3.364-1.679-3.5958-4.1551-0.01172-0.12525 0.79194-1.2654 0.13327-2.1725-0.22815-0.31422 0.69442-1.533 0.37927-1.8883-3.2715-3.6876-11.21-12.75-11.21-12.75v-2.6023l3.3191 0.14028-0.26243 1.9242 1.2038 0.14264-0.14045 1.4101 0.96097 1.0154 1.5969 0.12658-0.10955 1.417 0.85191 0.84775 1.1613-0.10164 0.2196 1.1633 0.83129 0.82066 1.0472 0.19735c0.39808 0.046238-1.0982-0.097816 0.2936 0.011786l1.2899 1.4852c2.1898 0.06795-0.68758 0.09516 2.0781 0.06092 0.62066 0.467 0.56436 0.30006 1.3908 1.3015 0.39187 0.47483 1.4658-1.3273 1.8003-1.0124 1.0394 0.97862 1.4171 0.40434 2.2222 0.31545 1.0052-0.11097 3.6194 2.2663 3.5958 4.1551z"
     fill="#000000"
     stroke="#000000"
     stroke-linecap="round"
     stroke-linejoin="round"
     stroke-width=".7622"
     style="paint-order:fill markers stroke"
     id="path901" />
  <path
     d="m2.1079 3.0354 11.636 12.985z"
     fill="#ffffff"
     stroke="#fdffff"
     stroke-width=".26458px"
     id="path903" />
  <path
     d="m 15.073066,21.351125 2.34633,-2.699556 c -0.09595,0.951106 0.207148,3.828375 0.08348,4.785905 z"
     fill="#ffffff"
     stroke="#fdffff"
     stroke-linecap="round"
     stroke-linejoin="round"
     stroke-width="0.239993"
     style="stroke:#000000;stroke-width:0.239978;stroke-miterlimit:4;stroke-dasharray:none;stroke-opacity:1;paint-order:fill markers stroke"
     id="path905"
     inkscape:transform-center-x="0.21867287"
     inkscape:transform-center-y="-0.04672761"
     sodipodi:nodetypes="cccc" />
  <path
     d="m 18.675591,18.309274 4.395813,0.599241 c -0.147095,1.26749 -0.933392,2.06421 -1.61765,2.684654 -0.70813,0.642047 -1.720227,1.087921 -2.550879,1.114182 z"
     fill="#ffffff"
     stroke="#fdffff"
     stroke-linecap="round"
     stroke-linejoin="round"
     stroke-width="0.548084"
     style="stroke:#000000;stroke-width:0.206229;stroke-miterlimit:4;stroke-dasharray:none;stroke-opacity:1;paint-order:fill markers stroke"
     id="path909"
     sodipodi:nodetypes="ccccc" />
  <path
     d="m 21.681034,14.887847 2.296114,2.742394 c -0.924105,-0.244615 -3.813189,-0.398686 -4.739271,-0.671687 z"
     fill="#ffffff"
     stroke="#fdffff"
     stroke-linecap="round"
     stroke-linejoin="round"
     stroke-width="0.239993"
     style="stroke:#000000;stroke-opacity:1;paint-order:fill markers stroke;stroke-width:0.23997757;stroke-miterlimit:4;stroke-dasharray:none"
     id="path905-2"
     inkscape:transform-center-x="0.10188414"
     inkscape:transform-center-y="-0.10030447"
     sodipodi:nodetypes="cccc" />
</svg>
