<?xml version="1.0" encoding="UTF-8"?>
<svg width="300" height="300" version="1.1" viewBox="0 0 79.375 79.375" xmlns="http://www.w3.org/2000/svg" xmlns:cc="http://creativecommons.org/ns#" xmlns:dc="http://purl.org/dc/elements/1.1/" xmlns:rdf="http://www.w3.org/1999/02/22-rdf-syntax-ns#">
 <metadata>
  <rdf:RDF>
   <cc:Work rdf:about="">
    <dc:format>image/svg+xml</dc:format>
    <dc:type rdf:resource="http://purl.org/dc/dcmitype/StillImage"/>
    <dc:title/>
   </cc:Work>
  </rdf:RDF>
 </metadata>
 <circle cx="39.688" cy="39.688" r="39.108" fill="#89bfd2" stroke-width="0"/>
 <ellipse cx="40.753" cy="40.899" rx="38.512" ry="38.311" fill="#0072b5" stroke-width="0"/>
 <path d="m62 79.878s-5.7734-0.40938-7.5-2.0099c-6.1045-5.6587 2.1531-17.309-5-22.109-3.8388-2.5757-12.462-2.5161-16.47-0.13364-6.5717 3.9061-0.42087 16.994-6.03 22.243-2.4826 2.323-10 2.0099-10 2.0099z" fill="#0a2239" stroke-width="0"/>
 <path d="m23.318 22.367c8.3366-7.9504 27.033-7.9504 35.369 0 6.7487 6.436 6.7487 20.87 0 27.306-8.3366 7.9504-27.033 7.9504-35.369 0-6.7487-6.436-6.7487-20.87 0-27.306z" fill="#0a2239" stroke-width="0"/>
 <path d="m22.759 13.594c-1.2418 0.45615-3.5987 5.55-2.1036 13.457l12.418-4.5615c-3.9787-6.9946-9.0725-9.3515-10.314-8.8953z" fill="#0a2239" stroke-width="0"/>
 <path d="m61.249 14.167c-1.1373-0.67573-6.5765 0.70906-11.768 6.8573l11.373 6.7573c2.917-7.4997 1.5323-12.939 0.39494-13.615z" fill="#0a2239" stroke-width="0"/>
 <path d="m14.552 56.885c-5.2917-5.2917-2.6458-6.6146 2.6458-5.2917 0 0 3.9688 1.3229 5.2114 5.3051 0.58989 1.8903 1.0348 4.2482 2.7261 5.2782 4.5195 2.7525 15.875 0 15.875 0v6.6146c-5.2917 1.3229-10.583 1.3229-15.875 0-2.7961-1.5464-6.6146-2.6458-6.6146-7.9375 0-2.6458-2.6458-3.9688-3.9688-3.9688z" fill="#0a2239"/>
 <path transform="matrix(.98509 .17206 -.35318 .93556 0 0)" d="m92.624 40.514c0.63924 11.449-4.4363 21.54-16.43 29.048-7.8733 4.9288-22.383-15.045-22.383-31.739s3.1426-27.866 9.7261-34.314c0.82178-0.80486 27.391 6.6354 29.087 37.005z" fill="#0a2239" fill-opacity=".54656"/>
</svg>
