<?xml version="1.0" encoding="UTF-8"?>
<svg id="SVGRoot" width="24px" height="24px" version="1.1" viewBox="0 0 24 24" xmlns="http://www.w3.org/2000/svg" xmlns:cc="http://creativecommons.org/ns#" xmlns:dc="http://purl.org/dc/elements/1.1/" xmlns:rdf="http://www.w3.org/1999/02/22-rdf-syntax-ns#">
 <metadata>
  <rdf:RDF>
   <cc:Work rdf:about="">
    <dc:format>image/svg+xml</dc:format>
    <dc:type rdf:resource="http://purl.org/dc/dcmitype/StillImage"/>
    <dc:title/>
   </cc:Work>
  </rdf:RDF>
 </metadata>
 <path d="m19.788 15.562-3.2543 3.4393-13.528-12.8 3.2543-3.4393z" fill="none" stroke="#000" stroke-linejoin="round" stroke-width=".22123"/>
 <path d="m12.935 9.2079 6.6617 6.3034-3.123 3.3005-13.323-12.607 3.123-3.3005z" fill="#ff9923" fill-opacity=".89069" stroke="#ff9923" stroke-opacity=".8902" stroke-width=".091798"/>
 <g stroke="#000">
  <path d="m6.2752 2.7452-5.1871-1.6489 1.9328 5.0882c0.30533-1.7802-0.002723-1.4546 1.5836-1.6736 0.26201-1.7344-0.046044-1.4088 1.6707-1.7657z" fill="none" stroke-width=".06982"/>
  <path d="m3.13 1.7814-1.2322 1.3022-0.79685-1.9881z" stroke-width=".11637"/>
  <rect transform="rotate(133.42)" x="-2.426" y="-27.327" width="4.9302" height="1.9452" fill="#f55" fill-opacity=".89069" stroke-linejoin="round" stroke-width=".07"/>
 </g>
 <g fill="#f60" fill-opacity=".89069" stroke="#000">
  <rect transform="rotate(133.42)" x="-2.2466" y="-24.93" width=".8964" height="18.48" stroke-width=".068389"/>
  <rect transform="rotate(133.42)" x="1.5404" y="-24.93" width=".8964" height="18.48" stroke-width=".0684"/>
  <rect transform="rotate(133.42)" x="-.29708" y="-24.92" width=".8964" height="18.48" stroke-width=".0684"/>
 </g>
 <g fill-opacity=".8902" stroke="#000">
  <path d="m5.0359 3.0666c0.09772-0.050764 0.15576-0.065469 0.59625-0.15118l0.36588-0.071186-0.3246 0.34886c-0.17853 0.19187-0.47328 0.50338-0.655 0.69223l-0.3304 0.34336 0.05087-0.36926c0.06076-0.44104 0.07046-0.4901 0.11886-0.60135 0.04509-0.10364 0.07882-0.13989 0.17814-0.19147z" fill="#ff9923" stroke-width=".004408"/>
  <path d="m3.4298 4.7425c0.0821-0.044442 0.24261-0.076435 0.57487-0.11459l0.35467-0.040728-0.62077 0.65605c-0.3595 0.37994-0.62102 0.64803-0.62138 0.63697-0.0012-0.036475 0.10822-0.7155 0.13191-0.8189 0.03882-0.16939 0.09819-0.27415 0.1807-0.3188z" fill="#ff9923" stroke-width=".004408"/>
  <path d="m4.6349 2.2685c0.78805 0.25071 1.4331 0.46003 1.4335 0.46514 3.54e-4 0.00515-0.18297 0.043568-0.40738 0.08545-0.60404 0.11274-0.73933 0.16515-0.84751 0.32839-0.06927 0.10454-0.10752 0.27429-0.1709 0.75864l-0.05783 0.44197-0.1293 0.13757-0.25384 0.029159c-0.65735 0.075511-0.72584 0.089615-0.84664 0.17432-0.13955 0.097866-0.18741 0.24642-0.28233 0.87629-0.03526 0.23397-0.06758 0.42535-0.07182 0.42529-0.0042-2.42e-5 -0.2494-0.63482-0.54479-1.4106l-0.53706-1.4105 1.2831-1.357z" fill="#ffa622" stroke-width=".097808"/>
 </g>
</svg>
