<?xml version="1.0" encoding="UTF-8"?>
<svg width="1e3" height="500" version="1.1" viewBox="0 0 264.58 132.29" xmlns="http://www.w3.org/2000/svg" xmlns:cc="http://creativecommons.org/ns#" xmlns:dc="http://purl.org/dc/elements/1.1/" xmlns:rdf="http://www.w3.org/1999/02/22-rdf-syntax-ns#">
 <metadata>
  <rdf:RDF>
   <cc:Work rdf:about="">
    <dc:format>image/svg+xml</dc:format>
    <dc:type rdf:resource="http://purl.org/dc/dcmitype/StillImage"/>
    <dc:title/>
   </cc:Work>
  </rdf:RDF>
 </metadata>
 <g fill="#1d84b5" stroke="#89bfd2" stroke-dashoffset="3.5906" stroke-linejoin="round">
  <path d="m15.514 109.73v-100.56h34.195c33.036 0 37.412-0.40272 39.759 0.08459 7.0142 1.4566 12.74 5.4514 16.369 12.813 1.7603 3.5711 3.0826 8.3471 3.5786 12.925 0.26761 2.4698 0.12822 8.5098-0.25215 10.928-1.1319 7.1964-3.965 13.439-8.0038 17.637-1.7254 1.7933-2.8597 2.7057-4.728 3.8032-2.5447 1.4948-5.3624 2.3874-8.5558 2.7101-1.0846 0.10962-7.8373 0.17491-18.089 0.17491h-16.359c-22.016-45.243 8.0697 17.16-8.6819-17.25l14.827-0.06263c16.315-0.06892 15.603-0.02585 18.641-1.1276 3.6347-1.318 6.4824-4.184 7.6617-7.711 0.33279-0.99527 0.38852-1.4963 0.38784-3.4869-6.38e-4 -2.175-0.03417-2.4167-0.51558-3.7555-1.1752-3.2665-3.7437-5.8873-7.0836-7.2278-0.55483-0.22268-1.5966-0.54866-2.3026-0.77008l-1.2938-0.36522-21.702-0.04696c-16.146-0.03494-17.749 0.0019-17.921 0.14362-0.19575 0.16142-0.23112 7.4527-0.23112 47.658v46.793h-12.885c-12.078-23.636 3.2958 7.0198-6.8149-13.309z" stroke-width="5.9242"/>
  <path d="m125.25 66.311v-49.16c10.669-12.247-6.5876 7.6495 6.6958-7.8015l15.809-0.10266v105.2c-10.068 9.6337 1.4383-0.9589-8.6299 8.3096l-13.875-0.46779z" stroke-width="6.4951"/>
  <path d="m172.52 122.55c-8.5008-1.4407-7.4404-7.4319-8.0798-11.553-0.12228-0.7415 0-18.792 0-50.912v-41.576c13.302-11.138-5.8061 4.8798 11.436-9.2839h82.061v9.0839l0.0281 10.796h-38.365-31.75c0 7.9375 0 17.198-0.55628 22.239l-17.965 0.25101c3.9688 6.6146 16.432 21.236 18.521 25.135-0.25734 10.51 0 18.521 0 27.781 10.583 0 20.018-4e-3 30.672-3e-3l39.443 3e-3c-3.9688 7.9375-7.9375 13.229-10.614 18.113l-33.406 2.6e-4c-22.241 1.7e-4 -41.772 0.34195-41.487 0z" stroke-width="6.4486"/>
  <path d="m199.76 64.823c-3.3354-4.983-6.0916-9.1045-6.1249-9.1589-0.0324-0.0544 10.574-0.09885 30.417-0.09885h31.123v18.318h-49.351z" stroke-width="6.6822"/>
 </g>
</svg>
