<?xml version="1.0" encoding="UTF-8" standalone="no"?>
<svg
   xmlns:dc="http://purl.org/dc/elements/1.1/"
   xmlns:cc="http://creativecommons.org/ns#"
   xmlns:rdf="http://www.w3.org/1999/02/22-rdf-syntax-ns#"
   xmlns:svg="http://www.w3.org/2000/svg"
   xmlns="http://www.w3.org/2000/svg"
   xmlns:sodipodi="http://sodipodi.sourceforge.net/DTD/sodipodi-0.dtd"
   xmlns:inkscape="http://www.inkscape.org/namespaces/inkscape"
   inkscape:version="1.0 (4035a4fb49, 2020-05-01)"
   sodipodi:docname="pieLogo.svg"
   id="svg8"
   version="1.1"
   viewBox="0 0 264.58333 132.29167"
   height="500"
   width="1000">
  <defs
     id="defs2">
    <marker
       inkscape:isstock="true"
       style="overflow:visible"
       id="Arrow1Lstart"
       refX="0.0"
       refY="0.0"
       orient="auto"
       inkscape:stockid="Arrow1Lstart">
      <path
         transform="scale(0.8) translate(12.5,0)"
         style="fill-rule:evenodd;stroke:#000000;stroke-width:1pt;stroke-opacity:1;fill:#000000;fill-opacity:1"
         d="M 0.0,0.0 L 5.0,-5.0 L -12.5,0.0 L 5.0,5.0 L 0.0,0.0 z "
         id="path2789" />
    </marker>
  </defs>
  <sodipodi:namedview
     inkscape:window-maximized="1"
     inkscape:window-y="-9"
     inkscape:window-x="-9"
     inkscape:window-height="1721"
     inkscape:window-width="3200"
     units="px"
     showgrid="true"
     inkscape:document-rotation="0"
     inkscape:current-layer="layer1"
     inkscape:document-units="mm"
     inkscape:cy="197.43977"
     inkscape:cx="444.00261"
     inkscape:zoom="1.979899"
     inkscape:pageshadow="2"
     inkscape:pageopacity="0.0"
     borderopacity="1.0"
     bordercolor="#666666"
     pagecolor="#ffffff"
     id="base">
    <inkscape:grid
       id="grid833"
       type="xygrid" />
  </sodipodi:namedview>
  <metadata
     id="metadata5">
    <rdf:RDF>
      <cc:Work
         rdf:about="">
        <dc:format>image/svg+xml</dc:format>
        <dc:type
           rdf:resource="http://purl.org/dc/dcmitype/StillImage" />
        <dc:title></dc:title>
      </cc:Work>
    </rdf:RDF>
  </metadata>
  <g
     id="layer1"
     inkscape:groupmode="layer"
     inkscape:label="Layer 1">
    <path
       sodipodi:nodetypes="cccssssssssscccssscssscssscccc"
       id="path3071"
       d="M 11.885238,115.84087 V 58.233319 1.3479029 h 41.834304 c 36.172174,0 42.08318,-0.1467244 43.53348,0.096308 7.739358,1.2969062 13.949808,6.2067495 17.923018,14.5886281 1.92736,4.065967 3.37524,9.503769 3.91838,14.716319 0.293,2.812003 0.14039,9.688991 -0.27612,12.442602 -1.23939,8.19353 -4.34139,15.301347 -8.76363,20.080693 -1.88922,2.04176 -3.13123,3.080645 -5.17684,4.330199 -2.78624,1.70197 -5.871486,2.718188 -9.368099,3.085667 -1.187517,0.124811 -8.581297,0.199145 -19.806601,0.199145 H 57.791407 l -4.753046,-9.820294 -4.753046,-9.820296 16.234317,-0.07132 c 17.864234,-0.07852 17.084298,-0.02941 20.410929,-1.283825 3.979762,-1.500655 7.097778,-4.7638 8.389026,-8.779501 0.364385,-1.133177 0.425408,-1.703681 0.424672,-3.970033 -7.74e-4,-2.476361 -0.03718,-2.751537 -0.564534,-4.275869 -1.286757,-3.719167 -4.099129,-6.703114 -7.756091,-8.22927 -0.607503,-0.253531 -1.742033,-0.648084 -2.521163,-0.876788 l -1.416619,-0.415826 -23.762295,-0.05346 c -17.678702,-0.03979 -23.827086,0.0021 -24.015348,0.163517 -0.21433,0.183784 -0.253044,8.485435 -0.253044,54.261901 v 53.27733 h -7.054001 -7.054 c -3.106589,-5.11329 -4.951861,-9.80199 -7.461926,-15.15286 z"
       style="fill:#1d84b5;fill-opacity:1;stroke:#3e95a3;stroke-width:2.60381;stroke-linecap:butt;stroke-linejoin:round;stroke-miterlimit:4;stroke-dasharray:none;stroke-dashoffset:3.59056;stroke-opacity:1" />
    <path
       sodipodi:nodetypes="cccccccccc"
       id="path3073"
       d="M 126.9595,66.737242 V 1.4221926 h 13.92971 13.92976 V 61.733857 122.04545 c -1.49916,3.15592 -3.52031,6.00837 -5.58931,8.8742 H 138.09453 126.9595 Z"
       style="fill:#1d84b5;fill-opacity:1;stroke:#3e95a3;stroke-width:2.79444;stroke-linecap:butt;stroke-linejoin:round;stroke-miterlimit:4;stroke-dasharray:none;stroke-dashoffset:3.59056;stroke-opacity:1" />
    <path
       sodipodi:nodetypes="ccscccccccscscccssc"
       id="path3077"
       d="m 172.92068,130.83455 c -7.83221,-1.64522 -6.85527,-8.48683 -7.44432,-13.19291 -0.11268,-0.84676 0,-21.460212 0,-58.139276 V 1.4221943 h 39.94992 45.73879 V 11.795595 21.243238 H 216.465 c -6.08171,0.274919 -25.87296,0.274919 -33.25991,0 v 48.251515 c 0,7.247391 -1.11267,38.931347 0,44.246667 4.43214,1.29167 22.16082,0 31.97665,0 h 33.02853 v 10.83381 6.34442 h -37.12292 c -20.49181,0 -38.48699,0.39054 -38.22398,0 z"
       style="fill:#1d84b5;fill-opacity:1;stroke:#3e95a3;stroke-width:3;stroke-linecap:butt;stroke-linejoin:round;stroke-miterlimit:4;stroke-dasharray:none;stroke-dashoffset:3.59056;stroke-opacity:1" />
    <path
       id="path3081"
       d="m 194.87181,68.941012 c -3.22667,-5.047289 -5.893,-9.221926 -5.92519,-9.27699 -0.0314,-0.0551 13.20914,-0.100118 29.42504,-0.100118 h 29.48361 v 9.276994 9.276989 h -23.55843 -23.55836 z"
       style="fill:#1d84b5;fill-opacity:1;stroke:#3e95a3;stroke-width:2.79444;stroke-linecap:butt;stroke-linejoin:round;stroke-miterlimit:4;stroke-dasharray:none;stroke-dashoffset:3.59056;stroke-opacity:1" />
  </g>
</svg>
