<?xml version="1.0" encoding="UTF-8"?>
<svg width="1e3" height="500" version="1.1" viewBox="0 0 264.58 132.29" xmlns="http://www.w3.org/2000/svg" xmlns:cc="http://creativecommons.org/ns#" xmlns:dc="http://purl.org/dc/elements/1.1/" xmlns:rdf="http://www.w3.org/1999/02/22-rdf-syntax-ns#">
 <metadata>
  <rdf:RDF>
   <cc:Work rdf:about="">
    <dc:format>image/svg+xml</dc:format>
    <dc:type rdf:resource="http://purl.org/dc/dcmitype/StillImage"/>
    <dc:title/>
   </cc:Work>
  </rdf:RDF>
 </metadata>
 <g fill="#1d84b5" stroke="#89bfd2" stroke-dashoffset="3.5906" stroke-linejoin="round">
  <path d="m9.4037 109.47v-99.809h35.309c34.112 0 38.631-0.39972 41.054 0.083957 7.2427 1.4457 13.155 5.4107 16.902 12.718 1.8176 3.5445 3.183 8.2849 3.6952 12.829 0.27633 2.4514 0.1324 8.4463-0.26036 10.847-1.1688 7.1427-4.0941 13.339-8.2645 17.505-1.7816 1.7799-2.9529 2.6855-4.882 3.7748-2.6275 1.4837-5.5371 2.3696-8.8345 2.6899-1.1199 0.1088-8.0925 0.1736-18.678 0.1736h-16.892c-22.733-44.906 8.3326 17.032-8.9647-17.122l15.31-0.06216c16.847-0.0684 16.111-0.02566 19.248-1.1192 3.7531-1.3082 6.6935-4.1528 7.9112-7.6535 0.34363-0.98784 0.40117-1.4852 0.40048-3.4609-6.59e-4 -2.1588-0.03529-2.3986-0.53238-3.7275-1.2135-3.2422-3.8657-5.8434-7.3143-7.1738-0.5729-0.22101-1.6486-0.54456-2.3776-0.76434l-1.3359-0.36249-22.409-0.04661c-16.672-0.03468-18.328 0.0019-18.505 0.14255-0.20213 0.16021-0.23864 7.3971-0.23864 47.303v46.444h-13.304c-12.472-23.46 3.4031 6.9674-7.0369-13.209z" stroke-width="5.9974"/>
  <path d="m120.85 66.639v-49.117c9.8131-12.236-6.0591 7.6428 6.1586-7.7947h22.172v105.1c-1.5245 2.7499-3.5798 5.2353-5.6838 7.7324h-22.647z" stroke-width="6.2264"/>
  <path d="m172.21 122.29c-8.2392-1.4304-7.2114-7.3786-7.8311-11.47-0.11851-0.73617 0-18.658 0-50.547v-41.278c12.892-11.058-5.6274 4.8447 11.084-9.2173h79.536v17.233h-36.981c-6.3978 0.23901-23.248 0.73944-31.019 0.50043l-0.46782 0.77125-5e-4 23.312-17.198 1.3229c6.6146 10.583 7.9375 11.906 17.198 23.812-0.24942 10.435-0.79195 28.072 2.5e-4 31.2 4.6624 1.123 19.811-0.50043 30.137-0.50043h38.331c-10.26 15.603 0.32292-0.27211-10.26 14.935l-32.378 2.6e-4c-21.557 1.7e-4 -40.487 0.3395-40.21 0z" stroke-width="6.3258"/>
  <path d="m194.47 68.792c-3.3552-4.3776-6.1278-7.9984-6.1613-8.0461-0.0326-0.04779 13.735-0.08684 30.597-0.08684h31.308v16.092h-49.644z" stroke-width="6.2817"/>
 </g>
</svg>
