<?xml version="1.0" encoding="UTF-8"?>
<svg width="25" height="25" version="1.1" viewBox="0 0 25 25" xmlns="http://www.w3.org/2000/svg" xmlns:cc="http://creativecommons.org/ns#" xmlns:dc="http://purl.org/dc/elements/1.1/" xmlns:osb="http://www.openswatchbook.org/uri/2009/osb" xmlns:rdf="http://www.w3.org/1999/02/22-rdf-syntax-ns#">
 <metadata>
  <rdf:RDF>
   <cc:Work rdf:about="">
    <dc:format>image/svg+xml</dc:format>
    <dc:type rdf:resource="http://purl.org/dc/dcmitype/StillImage"/>
    <dc:title/>
   </cc:Work>
  </rdf:RDF>
 </metadata>
 <g>
  <ellipse cx="12.5" cy="12.5" rx="11.414" ry="11.414" fill="#0a2239" stroke="#1d84b5" stroke-width=".773"/>
 </g>
 <g fill="#fff" stroke="#1d84b5">
  <path d="m7.4513 9.7421c-0.45247-0.44454-0.77877-1.0134-0.94948-1.6243-0.17071-0.61091-0.18706-1.2624-0.062898-1.8845 0.24832-1.2441 1.059-2.3421 2.112-3.0495 1.2578-0.84502 2.8483-1.1497 4.3455-0.91642 1.4972 0.2333 2.8948 0.98642 3.9783 2.0457 0.89057 0.87066 1.5828 1.9588 1.9082 3.161s0.27028 2.5185-0.23572 3.6566c-0.42826 0.96321-1.1499 1.7598-1.8424 2.5545s-1.3816 1.6299-1.7222 2.6275c-0.13164 0.38563-0.20826 0.7881-0.33498 1.1754-0.12673 0.38727-0.31116 0.76856-0.61544 1.0396-0.27566 0.24553-0.63969 0.38595-1.0084 0.40397-0.36871 0.01803-0.74021-0.08398-1.0561-0.27504-0.53134-0.32139-0.89301-0.88591-1.0321-1.4911-0.13909-0.6052-0.0684-1.2465 0.131-1.8346 0.30217-0.89118 0.88252-1.6569 1.4576-2.4017s1.1634-1.5023 1.486-2.3863c0.16129-0.442 0.25299-0.91293 0.23265-1.383-0.020333-0.47007-0.15601-0.93937-0.42009-1.3288-0.26408-0.38941-0.66042-0.69438-1.1148-0.81655-0.45437-0.12217-0.96392-0.051698-1.3498 0.2175-0.27018 0.18848-0.47074 0.46252-0.62391 0.75417-0.15316 0.29165-0.2631 0.60356-0.38582 0.90928-0.12272 0.30571-0.26049 0.60928-0.46146 0.87031-0.20096 0.26102-0.47161 0.47885-0.78962 0.56482-0.29459 0.079639-0.61361 0.040967-0.89647-0.073532-0.28287-0.1145-0.532-0.30126-0.74968-0.51513z" stroke-width=".6"/>
  <ellipse cx="12.818" cy="21.356" rx="1.7228" ry="1.8037" stroke-width=".446"/>
 </g>
</svg>
