<?xml version="1.0" encoding="UTF-8"?>
<svg width="4500" height="700" version="1.1" viewBox="0 0 4500 700" xmlns="http://www.w3.org/2000/svg" xmlns:cc="http://creativecommons.org/ns#" xmlns:dc="http://purl.org/dc/elements/1.1/" xmlns:rdf="http://www.w3.org/1999/02/22-rdf-syntax-ns#">
 <metadata>
  <rdf:RDF>
   <cc:Work rdf:about="">
    <dc:format>image/svg+xml</dc:format>
    <dc:type rdf:resource="http://purl.org/dc/dcmitype/StillImage"/>
    <dc:title/>
   </cc:Work>
  </rdf:RDF>
 </metadata>
 <text fill="#000000" font-family="sans-serif" font-size="144px" style="line-height:1.25;shape-inside:url(#rect1665);white-space:pre" xml:space="preserve"/>
 <g>
  <rect x="248.7" y="217.14" width="3953.1" height="463.01" fill="#000000" stroke="#ffffff" stroke-width="39.57"/>
 </g>
 <g>
  <rect x="241.67" y="210.06" width="3967.2" height="477.16" fill-opacity="0" stroke="#ffffff" stroke-width="25.47"/>
  <rect x="2225.2" y="197.28" width="49.907" height="502.72" fill="#ffffff"/>
  <rect x="428.61" y="197.28" width="49.907" height="502.72" fill="#ffffff"/>
  <rect x="628.24" y="197.28" width="49.907" height="502.72" fill="#ffffff"/>
  <rect x="827.86" y="197.28" width="49.907" height="502.72" fill="#ffffff"/>
  <rect x="1027.5" y="197.28" width="49.907" height="502.72" fill="#ffffff"/>
  <rect x="1227.1" y="197.28" width="49.907" height="502.72" fill="#ffffff"/>
  <rect x="1426.7" y="197.28" width="49.907" height="502.72" fill="#ffffff"/>
  <rect x="1626.4" y="197.28" width="49.907" height="502.72" fill="#ffffff"/>
  <rect x="1826" y="197.28" width="49.907" height="502.72" fill="#ffffff"/>
  <rect x="2025.6" y="197.28" width="49.907" height="502.72" fill="#ffffff"/>
  <rect x="2225.2" y="423.5" width="1996.3" height="50.272" fill="#ffffff"/>
  <rect x="250" y="423.5" width="200" height="50.272" fill="#ffffff"/>
  <rect x="650" y="423.5" width="200" height="50.272" fill="#ffffff"/>
  <rect x="1050" y="423.5" width="200" height="50.272" fill="#ffffff"/>
  <rect x="1450" y="423.5" width="200" height="50.272" fill="#ffffff"/>
  <rect x="1850" y="423.5" width="200" height="50.272" fill="#ffffff"/>
 </g>
 <g fill="#ffffff" font-family="sans-serif">
  <text transform="matrix(.99813 0 0 1.0054 253.04 142.66)" font-size="40px" style="line-height:1.25;shape-inside:url(#rect1085);white-space:pre" xml:space="preserve"><tspan x="1940.248" y="18.501405"><tspan fill="#ffffff" font-size="192px">0</tspan></tspan></text>
  <text transform="matrix(.99813 0 0 1.0054 -1762.6 145.81)" font-size="40px" style="line-height:1.25;shape-inside:url(#rect1085-2);white-space:pre" xml:space="preserve"><tspan x="1940.248" y="18.501405"><tspan font-size="192px">1</tspan></tspan></text>
  <text transform="matrix(.99813 0 0 1.0054 54.566 160.93)" font-size="192px" style="line-height:1.25;shape-inside:url(#rect1120);white-space:pre" xml:space="preserve"><tspan x="3910.623" y="0.42523331"><tspan style="shape-inside:url(#rect1120)">1 Km</tspan></tspan></text>
 </g>
</svg>
