<?xml version="1.0" encoding="UTF-8"?>
<svg width="4e3" height="500" version="1.1" viewBox="0 0 4e3 500" xmlns="http://www.w3.org/2000/svg" xmlns:cc="http://creativecommons.org/ns#" xmlns:dc="http://purl.org/dc/elements/1.1/" xmlns:rdf="http://www.w3.org/1999/02/22-rdf-syntax-ns#">
 <metadata>
  <rdf:RDF>
   <cc:Work rdf:about="">
    <dc:format>image/svg+xml</dc:format>
    <dc:type rdf:resource="http://purl.org/dc/dcmitype/StillImage"/>
    <dc:title/>
   </cc:Work>
  </rdf:RDF>
 </metadata>
 <rect x="7.2277" y="157.23" width="3985.5" height="335.54" fill-opacity=".99608" stroke="#fff" stroke-dashoffset="3.5906" stroke-miterlimit="5" stroke-width="14.456"/>
 <text fill="#000000" font-family="sans-serif" font-size="144px" style="line-height:1.25;shape-inside:url(#rect1665);white-space:pre" xml:space="preserve"/>
 <text fill="#000000" font-family="sans-serif" font-size="250px" style="line-height:1.25;shape-inside:url(#rect1671);white-space:pre" xml:space="preserve"><tspan x="1960" y="388.08258" visibility="hidden"><tspan fill="#ff0000" font-size="100px">0</tspan></tspan></text>
 <text transform="matrix(1.764 0 0 1.9537 414.67 1135.6)" fill="#ffffff" font-family="sans-serif" font-size="67.63px" stroke-miterlimit="5" style="line-height:1.25;shape-inside:url(#rect1679);white-space:pre" xml:space="preserve"><tspan x="880" y="-518.29937"><tspan fill="#ffffff" font-family="sans-serif" stroke-miterlimit="5">0</tspan></tspan></text>
 <text transform="matrix(2.1068 0 0 2.484 -1914.2 1443.2)" fill="#ffffff" font-family="sans-serif" font-size="54.64px" stroke-miterlimit="5" style="line-height:1.25;shape-inside:url(#rect1679-4);white-space:pre" xml:space="preserve"><tspan x="880" y="-530.14982"><tspan font-size="54.64px">10</tspan></tspan></text>
 <text transform="matrix(2.3816 0 0 2.5331 -1119.4 1469.2)" fill="#ffffff" font-family="sans-serif" font-size="53.191px" stroke-miterlimit="5" style="line-height:1.25;shape-inside:url(#rect1679-43);white-space:pre" xml:space="preserve"><tspan x="880" y="-531.47206"><tspan font-size="53.191px">5</tspan></tspan></text>
 <text transform="matrix(2.1068 0 0 2.484 1995.1 1447.4)" fill="#ffffff" font-family="sans-serif" font-size="54.64px" stroke-miterlimit="5" style="line-height:1.25;shape-inside:url(#rect1679-4-7);white-space:pre" xml:space="preserve"><tspan x="880" y="-530.14982"><tspan font-size="54.64px">10km</tspan></tspan></text>
 <rect x="2e3" y="308.13" width="2e3" height="34.339" fill="#fff"/>
 <rect x="1985" y="153.61" width="50" height="343.39" fill="#fff"/>
 <rect x="-1.2011e-5" y="308.13" width="200" height="34.339" fill="#fcffff"/>
 <rect x="800" y="308.13" width="200" height="34.339" fill="#fcffff"/>
 <rect x="400" y="308.13" width="200" height="34.339" fill="#fcffff"/>
 <rect x="1200" y="308.13" width="200" height="34.339" fill="#fcffff"/>
 <rect x="1600" y="308.13" width="200" height="34.339" fill="#fcffff"/>
 <rect x="200" y="153.61" width="50" height="343.39" fill="#fff" fill-opacity=".99608"/>
 <rect x="400" y="153.61" width="50" height="343.39" fill="#fff" fill-opacity=".99608"/>
 <rect x="-1.2011e-5" y="153.61" width="50" height="343.39" fill="#fff" fill-opacity=".99608"/>
 <rect x="600" y="153.61" width="50" height="343.39" fill="#fff" fill-opacity=".99608"/>
 <rect x="800" y="153.61" width="50" height="343.39" fill="#fff" fill-opacity=".99608"/>
 <rect x="1e3" y="153.61" width="50" height="343.39" fill="#fff" fill-opacity=".99608"/>
 <rect x="1200" y="153.61" width="50" height="343.39" fill="#fff" fill-opacity=".99608"/>
 <rect x="1400" y="153.61" width="50" height="343.39" fill="#fff" fill-opacity=".99608"/>
 <rect x="1600" y="153.61" width="50" height="343.39" fill="#fff" fill-opacity=".99608"/>
 <rect x="1800" y="153.61" width="50" height="343.39" fill="#fff" fill-opacity=".99608"/>
</svg>
