<?xml version="1.0" encoding="UTF-8"?>
<svg width="100" height="100" version="1.1" viewBox="0 0 26.458 26.458" xmlns="http://www.w3.org/2000/svg" xmlns:cc="http://creativecommons.org/ns#" xmlns:dc="http://purl.org/dc/elements/1.1/" xmlns:rdf="http://www.w3.org/1999/02/22-rdf-syntax-ns#">
 <metadata>
  <rdf:RDF>
   <cc:Work rdf:about="">
    <dc:format>image/svg+xml</dc:format>
    <dc:type rdf:resource="http://purl.org/dc/dcmitype/StillImage"/>
    <dc:title/>
   </cc:Work>
  </rdf:RDF>
 </metadata>
 <g>
  <path d="m6.0102 7.2992h14.686v18.49c-5.5812 0.7683-10.283 0.55001-14.686 0z" fill="#000000" stroke="#ffffff" stroke-linecap="round" stroke-linejoin="round" stroke-opacity=".94332" stroke-width=".60642" style="paint-order:fill markers stroke"/>
  <path d="m2.8488 6.0274c4.9292-2.2775 9.9386-4.1247 14.995-5.7179l0.63208 1.6577-0.59542 0.20636-0.46796-0.3071-13.349 5.0957-0.095575 0.53701-0.48755 0.18591z" fill="#000000" stroke="#000000" stroke-linecap="round" stroke-linejoin="round" stroke-width=".25163" style="paint-order:fill markers stroke"/>
  <path d="m7.6125 2.005 3.4615-1.3199 0.47174 1.2372-0.65472-0.33934-2.6417 1.0322-0.16824 0.68495z" fill="#000000" stroke="#000000" stroke-linecap="round" stroke-linejoin="round" stroke-width=".36276" style="paint-order:fill markers stroke"/>
  <rect transform="rotate(-20.872)" x="2.1353" y="6.8114" width=".21047" height=".86529" fill="#f9f9f9" stroke="#ffffff" stroke-linecap="round" stroke-linejoin="round" stroke-width=".23998" style="paint-order:fill markers stroke"/>
  <rect transform="rotate(-20.872)" x="4.2751" y="6.7061" width=".21047" height=".86529" fill="#f9f9f9" stroke="#ffffff" stroke-linecap="round" stroke-linejoin="round" stroke-width=".23998" style="paint-order:fill markers stroke"/>
  <rect transform="rotate(-20.872)" x="6.2863" y="6.7061" width=".21047" height=".86529" fill="#f9f9f9" stroke="#ffffff" stroke-linecap="round" stroke-linejoin="round" stroke-width=".23998" style="paint-order:fill markers stroke"/>
  <rect transform="rotate(-20.872)" x="8.3443" y="6.7295" width=".21047" height=".86529" fill="#f9f9f9" stroke="#ffffff" stroke-linecap="round" stroke-linejoin="round" stroke-width=".23998" style="paint-order:fill markers stroke"/>
  <rect transform="rotate(-20.872)" x="10.355" y="6.7529" width=".21047" height=".86529" fill="#f9f9f9" stroke="#ffffff" stroke-linecap="round" stroke-linejoin="round" stroke-width=".23998" style="paint-order:fill markers stroke"/>
  <rect transform="rotate(-20.872)" x="12.133" y="6.7763" width=".21047" height=".86529" fill="#f9f9f9" stroke="#ffffff" stroke-linecap="round" stroke-linejoin="round" stroke-width=".23998" style="paint-order:fill markers stroke"/>
  <rect transform="rotate(-20.872)" x="13.98" y="6.8231" width=".21047" height=".86529" fill="#f9f9f9" stroke="#ffffff" stroke-linecap="round" stroke-linejoin="round" stroke-width=".23998" style="paint-order:fill markers stroke"/>
  <rect x="-6.9924" y="8.8633" width="4.6772" height="5.4957" fill="#f9f9f9" stroke="#ffffff" stroke-linecap="round" stroke-linejoin="round" stroke-opacity=".94332" stroke-width=".60642" style="paint-order:fill markers stroke"/>
  <path d="m9.7286 12.979 7.694 7.1094z" fill="#f9f9f9" stroke="#ffffff" stroke-opacity=".9919" stroke-width=".26458px"/>
  <path d="m17.434 13.026-7.694 7.1094z" fill="#f9f9f9" stroke="#ffffff" stroke-opacity=".9919" stroke-width=".26458px"/>
 </g>
</svg>
